<svg width="584" height="245" viewBox="0 0 584 245" fill="none" xmlns="http://www.w3.org/2000/svg">
<ellipse cx="122.5" cy="119" rx="51.5" ry="50" fill="white"/>
<g filter="url(#filter0_d_0_1)">
<line x1="122.5" y1="55" x2="122.5" stroke="white"/>
</g>
<g filter="url(#filter1_d_0_1)">
<line x1="122.5" y1="237" x2="122.5" y2="182" stroke="white"/>
</g>
<g filter="url(#filter2_d_0_1)">
<line x1="184" y1="117.5" x2="241" y2="117.5" stroke="white"/>
</g>
<g filter="url(#filter3_d_0_1)">
<line x1="4" y1="117.5" x2="61" y2="117.5" stroke="white"/>
</g>
<line y1="-0.5" x2="34.2389" y2="-0.5" transform="matrix(0.733366 -0.679834 0.708647 0.705564 166.552 78.7179)" stroke="white"/>
<g filter="url(#filter4_d_0_1)">
<line y1="-0.5" x2="34.2389" y2="-0.5" transform="matrix(0.733366 -0.679834 0.708647 0.705564 51.1357 192.139)" stroke="white"/>
</g>
<g filter="url(#filter5_d_0_1)">
<line y1="-0.5" x2="34.4694" y2="-0.5" transform="matrix(0.838873 0.544327 -0.575126 0.818065 47.171 60.0964)" stroke="white"/>
</g>
<g filter="url(#filter6_d_0_1)">
<line y1="-0.5" x2="34.4694" y2="-0.5" transform="matrix(0.838873 0.544327 -0.575126 0.818065 166.552 168.863)" stroke="white"/>
</g>
<g filter="url(#filter7_d_0_1)">
<path d="M311.114 87.75H301.159C300.977 86.4621 300.606 85.3182 300.045 84.3182C299.485 83.303 298.765 82.4394 297.886 81.7273C297.008 81.0151 295.992 80.4697 294.841 80.0909C293.705 79.7121 292.47 79.5227 291.136 79.5227C288.727 79.5227 286.629 80.1212 284.841 81.3182C283.053 82.5 281.667 84.2273 280.682 86.5C279.697 88.7576 279.205 91.5 279.205 94.7273C279.205 98.0455 279.697 100.833 280.682 103.091C281.682 105.348 283.076 107.053 284.864 108.205C286.652 109.356 288.72 109.932 291.068 109.932C292.386 109.932 293.606 109.758 294.727 109.409C295.864 109.061 296.871 108.553 297.75 107.886C298.629 107.205 299.356 106.379 299.932 105.409C300.523 104.439 300.932 103.333 301.159 102.091L311.114 102.136C310.856 104.273 310.212 106.333 309.182 108.318C308.167 110.288 306.795 112.053 305.068 113.614C303.356 115.159 301.311 116.386 298.932 117.295C296.568 118.189 293.894 118.636 290.909 118.636C286.758 118.636 283.045 117.697 279.773 115.818C276.515 113.939 273.939 111.22 272.045 107.659C270.167 104.098 269.227 99.7879 269.227 94.7273C269.227 89.6515 270.182 85.3333 272.091 81.7727C274 78.2121 276.591 75.5 279.864 73.6364C283.136 71.7576 286.818 70.8182 290.909 70.8182C293.606 70.8182 296.106 71.197 298.409 71.9545C300.727 72.7121 302.78 73.8182 304.568 75.2727C306.356 76.7121 307.811 78.4773 308.932 80.5682C310.068 82.6591 310.795 85.053 311.114 87.75ZM327.943 118.659C325.716 118.659 323.731 118.273 321.989 117.5C320.246 116.712 318.867 115.553 317.852 114.023C316.852 112.477 316.352 110.553 316.352 108.25C316.352 106.311 316.708 104.682 317.42 103.364C318.133 102.045 319.102 100.985 320.33 100.182C321.557 99.3788 322.951 98.7727 324.511 98.3636C326.087 97.9545 327.739 97.6667 329.466 97.5C331.496 97.2879 333.133 97.0909 334.375 96.9091C335.617 96.7121 336.519 96.4242 337.08 96.0455C337.64 95.6667 337.92 95.1061 337.92 94.3636V94.2273C337.92 92.7879 337.466 91.6742 336.557 90.8864C335.663 90.0985 334.39 89.7045 332.739 89.7045C330.996 89.7045 329.61 90.0909 328.58 90.8636C327.549 91.6212 326.867 92.5758 326.534 93.7273L317.58 93C318.034 90.8788 318.928 89.0455 320.261 87.5C321.595 85.9394 323.314 84.7424 325.42 83.9091C327.542 83.0606 329.996 82.6364 332.784 82.6364C334.723 82.6364 336.58 82.8636 338.352 83.3182C340.14 83.7727 341.723 84.4773 343.102 85.4318C344.496 86.3864 345.595 87.6136 346.398 89.1136C347.201 90.5985 347.602 92.3788 347.602 94.4545V118H338.42V113.159H338.148C337.587 114.25 336.837 115.212 335.898 116.045C334.958 116.864 333.83 117.508 332.511 117.977C331.193 118.432 329.67 118.659 327.943 118.659ZM330.716 111.977C332.14 111.977 333.398 111.697 334.489 111.136C335.58 110.561 336.436 109.788 337.057 108.818C337.678 107.848 337.989 106.75 337.989 105.523V101.818C337.686 102.015 337.269 102.197 336.739 102.364C336.223 102.515 335.64 102.659 334.989 102.795C334.337 102.917 333.686 103.03 333.034 103.136C332.383 103.227 331.792 103.311 331.261 103.386C330.125 103.553 329.133 103.818 328.284 104.182C327.436 104.545 326.777 105.038 326.307 105.659C325.837 106.265 325.602 107.023 325.602 107.932C325.602 109.25 326.08 110.258 327.034 110.955C328.004 111.636 329.231 111.977 330.716 111.977ZM329.67 78.5909L334.489 68.25H343.443L336.511 78.5909H329.67ZM367.977 118.568C365.326 118.568 362.924 117.886 360.773 116.523C358.636 115.144 356.939 113.121 355.682 110.455C354.439 107.773 353.818 104.485 353.818 100.591C353.818 96.5909 354.462 93.2652 355.75 90.6136C357.038 87.947 358.75 85.9545 360.886 84.6364C363.038 83.303 365.394 82.6364 367.955 82.6364C369.909 82.6364 371.538 82.9697 372.841 83.6364C374.159 84.2879 375.22 85.1061 376.023 86.0909C376.841 87.0606 377.462 88.0152 377.886 88.9545H378.182V71.4545H387.841V118H378.295V112.409H377.886C377.432 113.379 376.788 114.341 375.955 115.295C375.136 116.235 374.068 117.015 372.75 117.636C371.447 118.258 369.856 118.568 367.977 118.568ZM371.045 110.864C372.606 110.864 373.924 110.439 375 109.591C376.091 108.727 376.924 107.523 377.5 105.977C378.091 104.432 378.386 102.621 378.386 100.545C378.386 98.4697 378.098 96.6667 377.523 95.1364C376.947 93.6061 376.114 92.4242 375.023 91.5909C373.932 90.7576 372.606 90.3409 371.045 90.3409C369.455 90.3409 368.114 90.7727 367.023 91.6364C365.932 92.5 365.106 93.697 364.545 95.2273C363.985 96.7576 363.705 98.5303 363.705 100.545C363.705 102.576 363.985 104.371 364.545 105.932C365.121 107.477 365.947 108.689 367.023 109.568C368.114 110.432 369.455 110.864 371.045 110.864ZM395.801 118V83.0909H405.483V118H395.801ZM400.665 78.5909C399.225 78.5909 397.991 78.1136 396.96 77.1591C395.945 76.1894 395.438 75.0303 395.438 73.6818C395.438 72.3485 395.945 71.2045 396.96 70.25C397.991 69.2803 399.225 68.7955 400.665 68.7955C402.104 68.7955 403.331 69.2803 404.347 70.25C405.377 71.2045 405.892 72.3485 405.892 73.6818C405.892 75.0303 405.377 76.1894 404.347 77.1591C403.331 78.1136 402.104 78.5909 400.665 78.5909ZM413.057 118V112.227L430.148 91.0682V90.8182H413.648V83.0909H441.807V89.3864L425.761 110.023V110.273H442.398V118H413.057Z" fill="white"/>
</g>
<g filter="url(#filter8_d_0_1)">
<path d="M267.364 151L271.227 127.727H274.045L270.591 148.5H281.409L281 151H267.364ZM290.091 151.409C288.985 151.409 288.015 151.201 287.182 150.784C286.348 150.36 285.731 149.75 285.33 148.955C284.928 148.152 284.818 147.182 285 146.045C285.174 145.045 285.511 144.235 286.011 143.614C286.511 142.985 287.117 142.492 287.83 142.136C288.549 141.773 289.322 141.504 290.148 141.33C290.981 141.148 291.811 141.008 292.636 140.909C293.712 140.773 294.587 140.667 295.261 140.591C295.936 140.515 296.443 140.39 296.784 140.216C297.125 140.042 297.333 139.742 297.409 139.318V139.227C297.591 138.114 297.443 137.246 296.966 136.625C296.489 135.996 295.636 135.682 294.409 135.682C293.136 135.682 292.072 135.962 291.216 136.523C290.36 137.083 289.727 137.682 289.318 138.318L286.955 137.409C287.576 136.348 288.318 135.523 289.182 134.932C290.045 134.333 290.951 133.917 291.898 133.682C292.845 133.439 293.758 133.318 294.636 133.318C295.197 133.318 295.83 133.386 296.534 133.523C297.239 133.652 297.898 133.92 298.511 134.33C299.133 134.739 299.598 135.356 299.909 136.182C300.227 137.008 300.273 138.114 300.045 139.5L298.136 151H295.455L295.864 148.636H295.727C295.485 149.015 295.114 149.42 294.614 149.852C294.121 150.284 293.496 150.652 292.739 150.955C291.989 151.258 291.106 151.409 290.091 151.409ZM290.864 149C291.924 149 292.852 148.792 293.648 148.375C294.451 147.958 295.095 147.42 295.58 146.761C296.072 146.102 296.379 145.409 296.5 144.682L296.909 142.227C296.773 142.364 296.504 142.489 296.102 142.602C295.701 142.708 295.246 142.803 294.739 142.886C294.239 142.962 293.75 143.03 293.273 143.091C292.803 143.144 292.424 143.189 292.136 143.227C291.424 143.318 290.746 143.466 290.102 143.67C289.466 143.867 288.928 144.167 288.489 144.568C288.057 144.962 287.788 145.5 287.682 146.182C287.523 147.114 287.746 147.818 288.352 148.295C288.958 148.765 289.795 149 290.864 149ZM319.077 151.364C317.433 151.364 316.084 150.977 315.031 150.205C313.986 149.432 313.259 148.367 312.849 147.011C312.44 145.655 312.38 144.106 312.668 142.364C312.955 140.591 313.539 139.027 314.418 137.67C315.296 136.307 316.391 135.242 317.702 134.477C319.012 133.705 320.455 133.318 322.031 133.318C323.259 133.318 324.327 133.545 325.236 134C326.145 134.455 326.846 135.091 327.338 135.909C327.83 136.727 328.062 137.682 328.031 138.773H325.349C325.274 137.977 324.933 137.273 324.327 136.659C323.728 136.038 322.842 135.727 321.668 135.727C320.622 135.727 319.66 136 318.781 136.545C317.902 137.083 317.164 137.845 316.565 138.83C315.967 139.807 315.562 140.955 315.349 142.273C315.122 143.621 315.141 144.795 315.406 145.795C315.671 146.795 316.152 147.572 316.849 148.125C317.546 148.678 318.425 148.955 319.486 148.955C320.183 148.955 320.834 148.833 321.44 148.591C322.046 148.348 322.584 148 323.054 147.545C323.524 147.091 323.895 146.545 324.168 145.909H326.849C326.516 146.939 325.982 147.867 325.247 148.693C324.512 149.511 323.622 150.163 322.577 150.648C321.531 151.125 320.365 151.364 319.077 151.364ZM329.906 151L332.815 133.545H335.497L332.588 151H329.906ZM334.974 130.591C334.452 130.591 334.001 130.413 333.622 130.057C333.251 129.701 333.065 129.273 333.065 128.773C333.065 128.273 333.251 127.845 333.622 127.489C334.001 127.133 334.452 126.955 334.974 126.955C335.497 126.955 335.944 127.133 336.315 127.489C336.694 127.845 336.884 128.273 336.884 128.773C336.884 129.273 336.694 129.701 336.315 130.057C335.944 130.413 335.497 130.591 334.974 130.591ZM349.682 143.864L351.409 133.545H354.091L351.182 151H348.5L349 148.045H348.818C348.273 148.932 347.511 149.686 346.534 150.307C345.557 150.92 344.409 151.227 343.091 151.227C342 151.227 341.068 150.989 340.295 150.511C339.53 150.027 338.985 149.299 338.659 148.33C338.341 147.352 338.303 146.121 338.545 144.636L340.409 133.545H343.091L341.273 144.455C341.068 145.727 341.261 146.742 341.852 147.5C342.443 148.258 343.295 148.636 344.409 148.636C345.076 148.636 345.78 148.466 346.523 148.125C347.273 147.784 347.939 147.261 348.523 146.557C349.114 145.852 349.5 144.955 349.682 143.864ZM362.662 151.364C361.2 151.364 359.973 150.996 358.98 150.261C357.988 149.519 357.287 148.473 356.878 147.125C356.476 145.769 356.427 144.167 356.73 142.318C357.041 140.485 357.62 138.894 358.469 137.545C359.325 136.197 360.374 135.155 361.616 134.42C362.859 133.686 364.215 133.318 365.685 133.318C366.821 133.318 367.688 133.508 368.287 133.886C368.893 134.258 369.332 134.682 369.605 135.159C369.878 135.629 370.086 136.015 370.23 136.318H370.457L371.889 127.727H374.571L370.707 151H368.116L368.571 148.318H368.253C368.003 148.636 367.654 149.038 367.207 149.523C366.76 150 366.17 150.428 365.435 150.807C364.707 151.178 363.783 151.364 362.662 151.364ZM363.321 148.955C364.397 148.955 365.359 148.674 366.207 148.114C367.063 147.545 367.776 146.761 368.344 145.761C368.912 144.754 369.306 143.591 369.526 142.273C369.745 140.97 369.738 139.83 369.503 138.852C369.268 137.867 368.817 137.102 368.151 136.557C367.484 136.004 366.601 135.727 365.503 135.727C364.374 135.727 363.393 136.019 362.56 136.602C361.726 137.178 361.048 137.962 360.526 138.955C360.003 139.939 359.639 141.045 359.435 142.273C359.23 143.515 359.226 144.644 359.423 145.659C359.62 146.667 360.037 147.47 360.673 148.068C361.317 148.659 362.2 148.955 363.321 148.955ZM381.06 151.409C379.954 151.409 378.984 151.201 378.151 150.784C377.317 150.36 376.7 149.75 376.298 148.955C375.897 148.152 375.787 147.182 375.969 146.045C376.143 145.045 376.48 144.235 376.98 143.614C377.48 142.985 378.086 142.492 378.798 142.136C379.518 141.773 380.291 141.504 381.116 141.33C381.95 141.148 382.779 141.008 383.605 140.909C384.681 140.773 385.556 140.667 386.23 140.591C386.904 140.515 387.412 140.39 387.753 140.216C388.094 140.042 388.302 139.742 388.378 139.318V139.227C388.56 138.114 388.412 137.246 387.935 136.625C387.457 135.996 386.605 135.682 385.378 135.682C384.105 135.682 383.041 135.962 382.185 136.523C381.329 137.083 380.696 137.682 380.287 138.318L377.923 137.409C378.545 136.348 379.287 135.523 380.151 134.932C381.014 134.333 381.92 133.917 382.866 133.682C383.813 133.439 384.726 133.318 385.605 133.318C386.166 133.318 386.798 133.386 387.503 133.523C388.207 133.652 388.866 133.92 389.48 134.33C390.101 134.739 390.567 135.356 390.878 136.182C391.196 137.008 391.241 138.114 391.014 139.5L389.105 151H386.423L386.832 148.636H386.696C386.454 149.015 386.082 149.42 385.582 149.852C385.09 150.284 384.465 150.652 383.707 150.955C382.957 151.258 382.075 151.409 381.06 151.409ZM381.832 149C382.893 149 383.821 148.792 384.616 148.375C385.42 147.958 386.063 147.42 386.548 146.761C387.041 146.102 387.348 145.409 387.469 144.682L387.878 142.227C387.741 142.364 387.473 142.489 387.071 142.602C386.67 142.708 386.215 142.803 385.707 142.886C385.207 142.962 384.719 143.03 384.241 143.091C383.772 143.144 383.393 143.189 383.105 143.227C382.393 143.318 381.715 143.466 381.071 143.67C380.435 143.867 379.897 144.167 379.457 144.568C379.026 144.962 378.757 145.5 378.651 146.182C378.491 147.114 378.715 147.818 379.321 148.295C379.927 148.765 380.764 149 381.832 149ZM400.568 151.364C399.106 151.364 397.879 150.996 396.886 150.261C395.894 149.519 395.193 148.473 394.784 147.125C394.383 145.769 394.333 144.167 394.636 142.318C394.947 140.485 395.527 138.894 396.375 137.545C397.231 136.197 398.28 135.155 399.523 134.42C400.765 133.686 402.121 133.318 403.591 133.318C404.727 133.318 405.595 133.508 406.193 133.886C406.799 134.258 407.239 134.682 407.511 135.159C407.784 135.629 407.992 136.015 408.136 136.318H408.364L409.795 127.727H412.477L408.614 151H406.023L406.477 148.318H406.159C405.909 148.636 405.561 149.038 405.114 149.523C404.667 150 404.076 150.428 403.341 150.807C402.614 151.178 401.689 151.364 400.568 151.364ZM401.227 148.955C402.303 148.955 403.265 148.674 404.114 148.114C404.97 147.545 405.682 146.761 406.25 145.761C406.818 144.754 407.212 143.591 407.432 142.273C407.652 140.97 407.644 139.83 407.409 138.852C407.174 137.867 406.723 137.102 406.057 136.557C405.39 136.004 404.508 135.727 403.409 135.727C402.28 135.727 401.299 136.019 400.466 136.602C399.633 137.178 398.955 137.962 398.432 138.955C397.909 139.939 397.545 141.045 397.341 142.273C397.136 143.515 397.133 144.644 397.33 145.659C397.527 146.667 397.943 147.47 398.58 148.068C399.223 148.659 400.106 148.955 401.227 148.955ZM433.693 157.545L435.216 148.318H434.989C434.739 148.636 434.39 149.038 433.943 149.523C433.504 150 432.917 150.428 432.182 150.807C431.447 151.178 430.519 151.364 429.398 151.364C427.943 151.364 426.72 150.996 425.727 150.261C424.735 149.519 424.038 148.473 423.636 147.125C423.235 145.769 423.186 144.167 423.489 142.318C423.792 140.485 424.367 138.894 425.216 137.545C426.064 136.197 427.11 135.155 428.352 134.42C429.595 133.686 430.951 133.318 432.42 133.318C433.557 133.318 434.424 133.508 435.023 133.886C435.629 134.258 436.068 134.682 436.341 135.159C436.614 135.629 436.822 136.015 436.966 136.318H437.284L437.761 133.545H440.352L436.375 157.545H433.693ZM430.148 148.955C431.231 148.955 432.189 148.674 433.023 148.114C433.864 147.545 434.557 146.761 435.102 145.761C435.655 144.754 436.042 143.591 436.261 142.273C436.481 140.97 436.481 139.83 436.261 138.852C436.042 137.867 435.606 137.102 434.955 136.557C434.311 136.004 433.443 135.727 432.352 135.727C431.216 135.727 430.22 136.019 429.364 136.602C428.515 137.178 427.822 137.962 427.284 138.955C426.746 139.939 426.375 141.045 426.17 142.273C425.966 143.515 425.97 144.644 426.182 145.659C426.402 146.667 426.837 147.47 427.489 148.068C428.148 148.659 429.034 148.955 430.148 148.955ZM454.526 143.864L456.253 133.545H458.935L456.026 151H453.344L453.844 148.045H453.662C453.116 148.932 452.355 149.686 451.378 150.307C450.401 150.92 449.253 151.227 447.935 151.227C446.844 151.227 445.912 150.989 445.139 150.511C444.374 150.027 443.829 149.299 443.503 148.33C443.185 147.352 443.147 146.121 443.389 144.636L445.253 133.545H447.935L446.116 144.455C445.912 145.727 446.105 146.742 446.696 147.5C447.287 148.258 448.139 148.636 449.253 148.636C449.92 148.636 450.624 148.466 451.366 148.125C452.116 147.784 452.783 147.261 453.366 146.557C453.957 145.852 454.344 144.955 454.526 143.864ZM468.21 151.364C466.536 151.364 465.153 150.992 464.062 150.25C462.972 149.5 462.21 148.455 461.778 147.114C461.347 145.765 461.278 144.197 461.574 142.409C461.869 140.621 462.456 139.045 463.335 137.682C464.214 136.311 465.309 135.242 466.619 134.477C467.93 133.705 469.369 133.318 470.938 133.318C471.847 133.318 472.722 133.47 473.562 133.773C474.403 134.076 475.131 134.568 475.744 135.25C476.358 135.924 476.786 136.818 477.028 137.932C477.271 139.045 477.256 140.417 476.983 142.045L476.801 143.182H463.347L463.71 140.864H474.438C474.612 139.879 474.566 139 474.301 138.227C474.044 137.455 473.593 136.845 472.949 136.398C472.313 135.951 471.506 135.727 470.528 135.727C469.521 135.727 468.581 136 467.71 136.545C466.839 137.083 466.112 137.765 465.528 138.591C464.945 139.409 464.581 140.242 464.438 141.091L464.119 143.091C463.892 144.538 463.926 145.689 464.222 146.545C464.525 147.402 465.051 148.019 465.801 148.398C466.551 148.769 467.491 148.955 468.619 148.955C469.339 148.955 470.002 148.856 470.608 148.659C471.214 148.455 471.756 148.152 472.233 147.75C472.71 147.341 473.112 146.833 473.438 146.227L475.892 146.955C475.475 147.833 474.888 148.606 474.131 149.273C473.381 149.932 472.502 150.447 471.494 150.818C470.494 151.182 469.4 151.364 468.21 151.364ZM503.261 137.455L500.716 138.136C500.625 137.727 500.466 137.333 500.239 136.955C500.019 136.568 499.678 136.254 499.216 136.011C498.761 135.761 498.14 135.636 497.352 135.636C496.284 135.636 495.356 135.883 494.568 136.375C493.78 136.86 493.33 137.477 493.216 138.227C493.102 138.886 493.254 139.413 493.67 139.807C494.087 140.201 494.784 140.523 495.761 140.773L498.261 141.409C499.761 141.795 500.83 142.375 501.466 143.148C502.11 143.913 502.33 144.909 502.125 146.136C501.958 147.136 501.523 148.03 500.818 148.818C500.114 149.606 499.212 150.227 498.114 150.682C497.015 151.136 495.792 151.364 494.443 151.364C492.648 151.364 491.231 150.977 490.193 150.205C489.155 149.424 488.602 148.295 488.534 146.818L491.216 146.182C491.284 147.114 491.617 147.818 492.216 148.295C492.822 148.765 493.67 149 494.761 149C496.011 149 497.053 148.735 497.886 148.205C498.72 147.667 499.193 147.023 499.307 146.273C499.42 145.659 499.299 145.148 498.943 144.739C498.595 144.33 497.989 144.023 497.125 143.818L494.352 143.136C492.807 142.75 491.723 142.159 491.102 141.364C490.489 140.568 490.284 139.568 490.489 138.364C490.655 137.379 491.08 136.508 491.761 135.75C492.451 134.992 493.314 134.398 494.352 133.966C495.398 133.534 496.534 133.318 497.761 133.318C499.489 133.318 500.78 133.697 501.636 134.455C502.492 135.205 503.034 136.205 503.261 137.455ZM512.548 151.364C510.942 151.364 509.598 150.981 508.514 150.216C507.431 149.451 506.666 148.379 506.219 147C505.779 145.621 505.707 144.015 506.003 142.182C506.291 140.394 506.863 138.837 507.719 137.511C508.582 136.178 509.654 135.148 510.935 134.42C512.223 133.686 513.639 133.318 515.185 133.318C516.791 133.318 518.132 133.705 519.207 134.477C520.291 135.242 521.056 136.318 521.503 137.705C521.95 139.083 522.026 140.697 521.73 142.545C521.442 144.318 520.863 145.867 519.991 147.193C519.128 148.511 518.056 149.538 516.776 150.273C515.503 151 514.094 151.364 512.548 151.364ZM512.594 148.955C513.821 148.955 514.885 148.64 515.787 148.011C516.696 147.383 517.431 146.553 517.991 145.523C518.56 144.492 518.942 143.379 519.139 142.182C519.321 141.045 519.313 139.989 519.116 139.011C518.92 138.027 518.499 137.235 517.855 136.636C517.211 136.03 516.306 135.727 515.139 135.727C513.912 135.727 512.84 136.045 511.923 136.682C511.014 137.318 510.279 138.155 509.719 139.193C509.158 140.231 508.783 141.348 508.594 142.545C508.412 143.682 508.416 144.739 508.605 145.716C508.802 146.686 509.223 147.47 509.866 148.068C510.518 148.659 511.427 148.955 512.594 148.955ZM528.847 140.5L527.119 151H524.438L527.347 133.545H529.938L529.483 136.273H529.71C530.256 135.386 530.994 134.674 531.926 134.136C532.858 133.591 533.983 133.318 535.301 133.318C536.468 133.318 537.453 133.561 538.256 134.045C539.066 134.523 539.638 135.25 539.972 136.227C540.313 137.197 540.362 138.424 540.119 139.909L538.256 151H535.574L537.392 140.091C537.619 138.727 537.441 137.659 536.858 136.886C536.282 136.114 535.369 135.727 534.119 135.727C533.256 135.727 532.456 135.913 531.722 136.284C530.994 136.655 530.377 137.197 529.869 137.909C529.369 138.621 529.028 139.485 528.847 140.5ZM543.156 151L546.065 133.545H548.656L548.202 136.182H548.384C548.838 135.318 549.531 134.617 550.463 134.08C551.395 133.542 552.384 133.273 553.429 133.273C553.634 133.273 553.88 133.277 554.168 133.284C554.455 133.284 554.679 133.295 554.838 133.318L554.384 136.045C554.293 136.023 554.088 135.989 553.77 135.943C553.452 135.89 553.111 135.864 552.747 135.864C551.899 135.864 551.115 136.042 550.395 136.398C549.675 136.746 549.073 137.231 548.588 137.852C548.103 138.466 547.793 139.167 547.656 139.955L545.838 151H543.156ZM555.125 151L558.034 133.545H560.716L557.807 151H555.125ZM558.58 131.136L562.216 125.864H565.352L560.943 131.136H558.58ZM569.991 151.364C568.317 151.364 566.935 150.992 565.844 150.25C564.753 149.5 563.991 148.455 563.56 147.114C563.128 145.765 563.06 144.197 563.355 142.409C563.651 140.621 564.238 139.045 565.116 137.682C565.995 136.311 567.09 135.242 568.401 134.477C569.711 133.705 571.151 133.318 572.719 133.318C573.628 133.318 574.503 133.47 575.344 133.773C576.185 134.076 576.912 134.568 577.526 135.25C578.139 135.924 578.567 136.818 578.81 137.932C579.052 139.045 579.037 140.417 578.764 142.045L578.582 143.182H565.128L565.491 140.864H576.219C576.393 139.879 576.348 139 576.082 138.227C575.825 137.455 575.374 136.845 574.73 136.398C574.094 135.951 573.287 135.727 572.31 135.727C571.302 135.727 570.363 136 569.491 136.545C568.62 137.083 567.893 137.765 567.31 138.591C566.726 139.409 566.363 140.242 566.219 141.091L565.901 143.091C565.673 144.538 565.707 145.689 566.003 146.545C566.306 147.402 566.832 148.019 567.582 148.398C568.332 148.769 569.272 148.955 570.401 148.955C571.12 148.955 571.783 148.856 572.389 148.659C572.995 148.455 573.537 148.152 574.014 147.75C574.491 147.341 574.893 146.833 575.219 146.227L577.673 146.955C577.257 147.833 576.67 148.606 575.912 149.273C575.162 149.932 574.283 150.447 573.276 150.818C572.276 151.182 571.181 151.364 569.991 151.364Z" fill="white"/>
</g>
<defs>
<filter id="filter0_d_0_1" x="118" y="0" width="9" height="63" filterUnits="userSpaceOnUse" color-interpolation-filters="sRGB">
<feFlood flood-opacity="0" result="BackgroundImageFix"/>
<feColorMatrix in="SourceAlpha" type="matrix" values="0 0 0 0 0 0 0 0 0 0 0 0 0 0 0 0 0 0 127 0" result="hardAlpha"/>
<feOffset dy="4"/>
<feGaussianBlur stdDeviation="2"/>
<feComposite in2="hardAlpha" operator="out"/>
<feColorMatrix type="matrix" values="0 0 0 0 0 0 0 0 0 0 0 0 0 0 0 0 0 0 0.25 0"/>
<feBlend mode="normal" in2="BackgroundImageFix" result="effect1_dropShadow_0_1"/>
<feBlend mode="normal" in="SourceGraphic" in2="effect1_dropShadow_0_1" result="shape"/>
</filter>
<filter id="filter1_d_0_1" x="118" y="182" width="9" height="63" filterUnits="userSpaceOnUse" color-interpolation-filters="sRGB">
<feFlood flood-opacity="0" result="BackgroundImageFix"/>
<feColorMatrix in="SourceAlpha" type="matrix" values="0 0 0 0 0 0 0 0 0 0 0 0 0 0 0 0 0 0 127 0" result="hardAlpha"/>
<feOffset dy="4"/>
<feGaussianBlur stdDeviation="2"/>
<feComposite in2="hardAlpha" operator="out"/>
<feColorMatrix type="matrix" values="0 0 0 0 0 0 0 0 0 0 0 0 0 0 0 0 0 0 0.25 0"/>
<feBlend mode="normal" in2="BackgroundImageFix" result="effect1_dropShadow_0_1"/>
<feBlend mode="normal" in="SourceGraphic" in2="effect1_dropShadow_0_1" result="shape"/>
</filter>
<filter id="filter2_d_0_1" x="180" y="117" width="65" height="9" filterUnits="userSpaceOnUse" color-interpolation-filters="sRGB">
<feFlood flood-opacity="0" result="BackgroundImageFix"/>
<feColorMatrix in="SourceAlpha" type="matrix" values="0 0 0 0 0 0 0 0 0 0 0 0 0 0 0 0 0 0 127 0" result="hardAlpha"/>
<feOffset dy="4"/>
<feGaussianBlur stdDeviation="2"/>
<feComposite in2="hardAlpha" operator="out"/>
<feColorMatrix type="matrix" values="0 0 0 0 0 0 0 0 0 0 0 0 0 0 0 0 0 0 0.25 0"/>
<feBlend mode="normal" in2="BackgroundImageFix" result="effect1_dropShadow_0_1"/>
<feBlend mode="normal" in="SourceGraphic" in2="effect1_dropShadow_0_1" result="shape"/>
</filter>
<filter id="filter3_d_0_1" x="0" y="117" width="65" height="9" filterUnits="userSpaceOnUse" color-interpolation-filters="sRGB">
<feFlood flood-opacity="0" result="BackgroundImageFix"/>
<feColorMatrix in="SourceAlpha" type="matrix" values="0 0 0 0 0 0 0 0 0 0 0 0 0 0 0 0 0 0 127 0" result="hardAlpha"/>
<feOffset dy="4"/>
<feGaussianBlur stdDeviation="2"/>
<feComposite in2="hardAlpha" operator="out"/>
<feColorMatrix type="matrix" values="0 0 0 0 0 0 0 0 0 0 0 0 0 0 0 0 0 0 0.25 0"/>
<feBlend mode="normal" in2="BackgroundImageFix" result="effect1_dropShadow_0_1"/>
<feBlend mode="normal" in="SourceGraphic" in2="effect1_dropShadow_0_1" result="shape"/>
</filter>
<filter id="filter4_d_0_1" x="46.4271" y="168.157" width="33.8183" height="31.9823" filterUnits="userSpaceOnUse" color-interpolation-filters="sRGB">
<feFlood flood-opacity="0" result="BackgroundImageFix"/>
<feColorMatrix in="SourceAlpha" type="matrix" values="0 0 0 0 0 0 0 0 0 0 0 0 0 0 0 0 0 0 127 0" result="hardAlpha"/>
<feOffset dy="4"/>
<feGaussianBlur stdDeviation="2"/>
<feComposite in2="hardAlpha" operator="out"/>
<feColorMatrix type="matrix" values="0 0 0 0 0 0 0 0 0 0 0 0 0 0 0 0 0 0 0.25 0"/>
<feBlend mode="normal" in2="BackgroundImageFix" result="effect1_dropShadow_0_1"/>
<feBlend mode="normal" in="SourceGraphic" in2="effect1_dropShadow_0_1" result="shape"/>
</filter>
<filter id="filter5_d_0_1" x="43.171" y="59.2784" width="37.4906" height="27.5807" filterUnits="userSpaceOnUse" color-interpolation-filters="sRGB">
<feFlood flood-opacity="0" result="BackgroundImageFix"/>
<feColorMatrix in="SourceAlpha" type="matrix" values="0 0 0 0 0 0 0 0 0 0 0 0 0 0 0 0 0 0 127 0" result="hardAlpha"/>
<feOffset dy="4"/>
<feGaussianBlur stdDeviation="2"/>
<feComposite in2="hardAlpha" operator="out"/>
<feColorMatrix type="matrix" values="0 0 0 0 0 0 0 0 0 0 0 0 0 0 0 0 0 0 0.25 0"/>
<feBlend mode="normal" in2="BackgroundImageFix" result="effect1_dropShadow_0_1"/>
<feBlend mode="normal" in="SourceGraphic" in2="effect1_dropShadow_0_1" result="shape"/>
</filter>
<filter id="filter6_d_0_1" x="162.552" y="168.044" width="37.4906" height="27.5807" filterUnits="userSpaceOnUse" color-interpolation-filters="sRGB">
<feFlood flood-opacity="0" result="BackgroundImageFix"/>
<feColorMatrix in="SourceAlpha" type="matrix" values="0 0 0 0 0 0 0 0 0 0 0 0 0 0 0 0 0 0 127 0" result="hardAlpha"/>
<feOffset dy="4"/>
<feGaussianBlur stdDeviation="2"/>
<feComposite in2="hardAlpha" operator="out"/>
<feColorMatrix type="matrix" values="0 0 0 0 0 0 0 0 0 0 0 0 0 0 0 0 0 0 0.25 0"/>
<feBlend mode="normal" in2="BackgroundImageFix" result="effect1_dropShadow_0_1"/>
<feBlend mode="normal" in="SourceGraphic" in2="effect1_dropShadow_0_1" result="shape"/>
</filter>
<filter id="filter7_d_0_1" x="265.227" y="68.25" width="181.17" height="58.4091" filterUnits="userSpaceOnUse" color-interpolation-filters="sRGB">
<feFlood flood-opacity="0" result="BackgroundImageFix"/>
<feColorMatrix in="SourceAlpha" type="matrix" values="0 0 0 0 0 0 0 0 0 0 0 0 0 0 0 0 0 0 127 0" result="hardAlpha"/>
<feOffset dy="4"/>
<feGaussianBlur stdDeviation="2"/>
<feComposite in2="hardAlpha" operator="out"/>
<feColorMatrix type="matrix" values="0 0 0 0 0 0 0 0 0 0 0 0 0 0 0 0 0 0 0.25 0"/>
<feBlend mode="normal" in2="BackgroundImageFix" result="effect1_dropShadow_0_1"/>
<feBlend mode="normal" in="SourceGraphic" in2="effect1_dropShadow_0_1" result="shape"/>
</filter>
<filter id="filter8_d_0_1" x="263.364" y="125.864" width="319.81" height="39.6818" filterUnits="userSpaceOnUse" color-interpolation-filters="sRGB">
<feFlood flood-opacity="0" result="BackgroundImageFix"/>
<feColorMatrix in="SourceAlpha" type="matrix" values="0 0 0 0 0 0 0 0 0 0 0 0 0 0 0 0 0 0 127 0" result="hardAlpha"/>
<feOffset dy="4"/>
<feGaussianBlur stdDeviation="2"/>
<feComposite in2="hardAlpha" operator="out"/>
<feColorMatrix type="matrix" values="0 0 0 0 0 0 0 0 0 0 0 0 0 0 0 0 0 0 0.25 0"/>
<feBlend mode="normal" in2="BackgroundImageFix" result="effect1_dropShadow_0_1"/>
<feBlend mode="normal" in="SourceGraphic" in2="effect1_dropShadow_0_1" result="shape"/>
</filter>
</defs>
</svg>
