<svg width="266" height="226" viewBox="0 0 266 226" fill="none" xmlns="http://www.w3.org/2000/svg">
<ellipse cx="158" cy="93.5" rx="41" ry="39.5" fill="black"/>
<g filter="url(#filter0_d_4_63)">
<line x1="157.5" y1="44" x2="157.5" stroke="black"/>
</g>
<g filter="url(#filter1_d_4_63)">
<line x1="157.5" y1="186" x2="157.5" y2="143" stroke="black"/>
</g>
<g filter="url(#filter2_d_4_63)">
<line x1="207" y1="91.5" x2="252" y2="91.5" stroke="black"/>
</g>
<g filter="url(#filter3_d_4_63)">
<line x1="64" y1="91.5" x2="109" y2="91.5" stroke="black"/>
</g>
<line y1="-0.5" x2="27.0648" y2="-0.5" transform="matrix(0.736409 -0.676537 0.711815 0.702367 193.025 61.9221)" stroke="black"/>
<g filter="url(#filter4_d_4_63)">
<line y1="-0.5" x2="27.0648" y2="-0.5" transform="matrix(0.736409 -0.676537 0.711815 0.702367 101.414 151.143)" stroke="black"/>
</g>
<g filter="url(#filter5_d_4_63)">
<line y1="-0.5" x2="27.2876" y2="-0.5" transform="matrix(0.841099 0.540881 -0.578591 0.815618 98.2669 47.2739)" stroke="black"/>
</g>
<g filter="url(#filter6_d_4_63)">
<line y1="-0.5" x2="27.2876" y2="-0.5" transform="matrix(0.841099 0.540881 -0.578591 0.815618 193.025 132.833)" stroke="black"/>
</g>
<g filter="url(#filter7_d_4_63)">
<path d="M32.196 167.094H25.9744C25.8608 166.289 25.6288 165.574 25.2784 164.949C24.928 164.314 24.4782 163.775 23.929 163.33C23.3797 162.884 22.7453 162.544 22.0256 162.307C21.3153 162.07 20.5436 161.952 19.7102 161.952C18.2045 161.952 16.893 162.326 15.7756 163.074C14.6581 163.812 13.7917 164.892 13.1761 166.312C12.5606 167.723 12.2528 169.437 12.2528 171.455C12.2528 173.528 12.5606 175.271 13.1761 176.682C13.8011 178.093 14.6723 179.158 15.7898 179.878C16.9072 180.598 18.1998 180.957 19.6676 180.957C20.4915 180.957 21.2538 180.848 21.9545 180.631C22.6648 180.413 23.2945 180.096 23.8438 179.679C24.393 179.253 24.8475 178.737 25.2074 178.131C25.5767 177.525 25.8324 176.833 25.9744 176.057L32.196 176.085C32.035 177.42 31.6326 178.708 30.9886 179.949C30.3542 181.18 29.4972 182.283 28.4176 183.259C27.3475 184.224 26.0691 184.991 24.5824 185.56C23.1051 186.118 21.4337 186.398 19.5682 186.398C16.9735 186.398 14.6534 185.811 12.608 184.636C10.572 183.462 8.96212 181.762 7.77841 179.537C6.60417 177.312 6.01705 174.617 6.01705 171.455C6.01705 168.282 6.61364 165.583 7.80682 163.358C9 161.133 10.6193 159.437 12.6648 158.273C14.7102 157.098 17.0114 156.511 19.5682 156.511C21.2538 156.511 22.8163 156.748 24.2557 157.222C25.7045 157.695 26.9877 158.386 28.1051 159.295C29.2225 160.195 30.1316 161.298 30.8324 162.605C31.5426 163.912 31.9972 165.408 32.196 167.094ZM42.7145 186.412C41.3224 186.412 40.0819 186.17 38.9929 185.688C37.9039 185.195 37.0421 184.471 36.4077 183.514C35.7827 182.548 35.4702 181.346 35.4702 179.906C35.4702 178.694 35.6927 177.676 36.1378 176.852C36.5829 176.028 37.1889 175.366 37.956 174.864C38.723 174.362 39.5942 173.983 40.5696 173.727C41.5545 173.472 42.5866 173.292 43.6662 173.188C44.9351 173.055 45.9579 172.932 46.7344 172.818C47.5109 172.695 48.0743 172.515 48.4247 172.278C48.7751 172.042 48.9503 171.691 48.9503 171.227V171.142C48.9503 170.242 48.6662 169.546 48.098 169.054C47.5393 168.562 46.7438 168.315 45.7116 168.315C44.6226 168.315 43.7562 168.557 43.1122 169.04C42.4683 169.513 42.0421 170.11 41.8338 170.83L36.2372 170.375C36.5213 169.049 37.08 167.903 37.9134 166.938C38.7467 165.962 39.8215 165.214 41.1378 164.693C42.4635 164.163 43.9976 163.898 45.7401 163.898C46.9522 163.898 48.1122 164.04 49.2202 164.324C50.3376 164.608 51.3272 165.048 52.1889 165.645C53.0601 166.241 53.7467 167.009 54.2486 167.946C54.7505 168.874 55.0014 169.987 55.0014 171.284V186H49.2628V182.974H49.0923C48.742 183.656 48.2732 184.258 47.6861 184.778C47.099 185.29 46.3935 185.692 45.5696 185.986C44.7457 186.27 43.794 186.412 42.7145 186.412ZM44.4474 182.236C45.3376 182.236 46.1236 182.061 46.8054 181.71C47.4872 181.35 48.0223 180.867 48.4105 180.261C48.7988 179.655 48.9929 178.969 48.9929 178.202V175.886C48.8035 176.009 48.5431 176.123 48.2116 176.227C47.8897 176.322 47.5251 176.412 47.1179 176.497C46.7107 176.573 46.3035 176.644 45.8963 176.71C45.4891 176.767 45.1198 176.819 44.7884 176.866C44.0781 176.971 43.4579 177.136 42.9276 177.364C42.3973 177.591 41.9853 177.899 41.6918 178.287C41.3982 178.666 41.2514 179.139 41.2514 179.707C41.2514 180.531 41.5497 181.161 42.1463 181.597C42.7524 182.023 43.5194 182.236 44.4474 182.236ZM43.794 161.369L46.8054 154.906H52.402L48.0696 161.369H43.794ZM67.7358 186.355C66.0786 186.355 64.5777 185.929 63.233 185.077C61.8977 184.215 60.8371 182.951 60.0511 181.284C59.2746 179.608 58.8864 177.553 58.8864 175.119C58.8864 172.619 59.2888 170.541 60.0938 168.884C60.8987 167.217 61.9688 165.972 63.304 165.148C64.6487 164.314 66.1212 163.898 67.7216 163.898C68.9432 163.898 69.9612 164.106 70.7756 164.523C71.5994 164.93 72.2623 165.441 72.7642 166.057C73.2756 166.663 73.6638 167.259 73.929 167.847H74.1136V156.909H80.1506V186H74.1847V182.506H73.929C73.6449 183.112 73.2424 183.713 72.7216 184.31C72.2102 184.897 71.5426 185.384 70.7188 185.773C69.9044 186.161 68.91 186.355 67.7358 186.355ZM69.6534 181.54C70.6288 181.54 71.4527 181.275 72.125 180.744C72.8068 180.205 73.3277 179.452 73.6875 178.486C74.0568 177.52 74.2415 176.388 74.2415 175.091C74.2415 173.794 74.0616 172.667 73.7017 171.71C73.3419 170.754 72.821 170.015 72.1392 169.494C71.4574 168.973 70.6288 168.713 69.6534 168.713C68.6591 168.713 67.821 168.983 67.1392 169.523C66.4574 170.062 65.9413 170.811 65.5909 171.767C65.2405 172.723 65.0653 173.831 65.0653 175.091C65.0653 176.36 65.2405 177.482 65.5909 178.457C65.9508 179.423 66.4669 180.181 67.1392 180.73C67.821 181.27 68.6591 181.54 69.6534 181.54ZM85.1257 186V164.182H91.1768V186H85.1257ZM88.1655 161.369C87.2659 161.369 86.4941 161.071 85.8501 160.474C85.2157 159.868 84.8984 159.144 84.8984 158.301C84.8984 157.468 85.2157 156.753 85.8501 156.156C86.4941 155.55 87.2659 155.247 88.1655 155.247C89.0651 155.247 89.8321 155.55 90.4666 156.156C91.1106 156.753 91.4325 157.468 91.4325 158.301C91.4325 159.144 91.1106 159.868 90.4666 160.474C89.8321 161.071 89.0651 161.369 88.1655 161.369ZM95.9105 186V182.392L106.592 169.168V169.011H96.2798V164.182H113.879V168.116L103.851 181.014V181.17H114.249V186H95.9105Z" fill="black"/>
</g>
<g filter="url(#filter8_d_4_63)">
<path d="M4.85227 213L7.26705 198.455H9.02841L6.86932 211.438H13.6307L13.375 213H4.85227ZM19.0568 213.256C18.3655 213.256 17.7595 213.125 17.2386 212.865C16.7178 212.6 16.3319 212.219 16.081 211.722C15.83 211.22 15.7614 210.614 15.875 209.903C15.9839 209.278 16.1946 208.772 16.5071 208.384C16.8196 207.991 17.1984 207.683 17.6435 207.46C18.0933 207.233 18.5762 207.065 19.0923 206.956C19.6132 206.842 20.1316 206.755 20.6477 206.693C21.3201 206.608 21.867 206.542 22.2884 206.494C22.7098 206.447 23.027 206.369 23.2401 206.26C23.4531 206.151 23.5833 205.964 23.6307 205.699V205.642C23.7443 204.946 23.652 204.404 23.3537 204.016C23.0554 203.623 22.5227 203.426 21.7557 203.426C20.9602 203.426 20.295 203.601 19.7599 203.952C19.2249 204.302 18.8295 204.676 18.5739 205.074L17.0966 204.506C17.4848 203.843 17.9489 203.327 18.4886 202.957C19.0284 202.583 19.5942 202.323 20.1861 202.176C20.7779 202.025 21.3485 201.949 21.8977 201.949C22.2481 201.949 22.6435 201.991 23.0838 202.077C23.5241 202.157 23.9361 202.325 24.3196 202.581C24.7079 202.837 24.9991 203.223 25.1932 203.739C25.392 204.255 25.4205 204.946 25.2784 205.812L24.0852 213H22.4091L22.6648 211.523H22.5795C22.428 211.759 22.196 212.013 21.8835 212.283C21.5758 212.553 21.1851 212.782 20.7116 212.972C20.2429 213.161 19.6913 213.256 19.0568 213.256ZM19.5398 211.75C20.2027 211.75 20.7827 211.62 21.2798 211.359C21.7817 211.099 22.1842 210.763 22.4872 210.351C22.795 209.939 22.9867 209.506 23.0625 209.051L23.3182 207.517C23.233 207.602 23.0649 207.68 22.8139 207.751C22.563 207.818 22.2789 207.877 21.9616 207.929C21.6491 207.976 21.3438 208.019 21.0455 208.057C20.7519 208.09 20.5152 208.118 20.3352 208.142C19.8902 208.199 19.4664 208.291 19.0639 208.419C18.6662 208.542 18.33 208.729 18.0554 208.98C17.7855 209.226 17.6174 209.562 17.5511 209.989C17.4517 210.571 17.5914 211.011 17.9702 211.31C18.349 211.603 18.8722 211.75 19.5398 211.75ZM37.1729 213.227C36.1455 213.227 35.3027 212.986 34.6445 212.503C33.9911 212.02 33.5366 211.355 33.2809 210.507C33.0252 209.66 32.9873 208.691 33.1673 207.602C33.3472 206.494 33.7118 205.517 34.261 204.669C34.8103 203.817 35.4944 203.152 36.3136 202.673C37.1327 202.19 38.0347 201.949 39.0195 201.949C39.7866 201.949 40.4542 202.091 41.0224 202.375C41.5906 202.659 42.0285 203.057 42.3363 203.568C42.6441 204.08 42.7885 204.676 42.7695 205.358H41.0934C41.046 204.861 40.833 204.42 40.4542 204.037C40.0801 203.649 39.5262 203.455 38.7923 203.455C38.1388 203.455 37.5375 203.625 36.9883 203.966C36.439 204.302 35.9774 204.778 35.6033 205.393C35.2293 206.004 34.976 206.722 34.8434 207.545C34.7013 208.388 34.7132 209.122 34.8789 209.747C35.0446 210.372 35.3453 210.857 35.7809 211.203C36.2165 211.549 36.7657 211.722 37.4286 211.722C37.8642 211.722 38.2714 211.646 38.6502 211.494C39.029 211.343 39.3652 211.125 39.6587 210.841C39.9523 210.557 40.1843 210.216 40.3548 209.818H42.0309C41.8226 210.462 41.4888 211.042 41.0295 211.558C40.5702 212.07 40.0138 212.477 39.3604 212.78C38.707 213.078 37.9779 213.227 37.1729 213.227ZM43.9414 213L45.7596 202.091H47.4357L45.6175 213H43.9414ZM47.109 200.244C46.7823 200.244 46.5006 200.133 46.2638 199.911C46.0318 199.688 45.9158 199.42 45.9158 199.108C45.9158 198.795 46.0318 198.528 46.2638 198.305C46.5006 198.083 46.7823 197.972 47.109 197.972C47.4357 197.972 47.7151 198.083 47.9471 198.305C48.1838 198.528 48.3022 198.795 48.3022 199.108C48.3022 199.42 48.1838 199.688 47.9471 199.911C47.7151 200.133 47.4357 200.244 47.109 200.244ZM56.3011 208.54L57.3807 202.091H59.0568L57.2386 213H55.5625L55.875 211.153H55.7614C55.4205 211.707 54.9446 212.179 54.3338 212.567C53.723 212.95 53.0057 213.142 52.1818 213.142C51.5 213.142 50.9176 212.993 50.4347 212.695C49.9564 212.392 49.6155 211.937 49.4119 211.331C49.2131 210.72 49.1894 209.951 49.3409 209.023L50.5057 202.091H52.1818L51.0455 208.909C50.9176 209.705 51.0384 210.339 51.4077 210.812C51.777 211.286 52.3097 211.523 53.0057 211.523C53.4223 211.523 53.8627 211.416 54.3267 211.203C54.7955 210.99 55.2121 210.663 55.5767 210.223C55.946 209.783 56.1875 209.222 56.3011 208.54ZM64.4137 213.227C63.4999 213.227 62.7328 212.998 62.1126 212.538C61.4923 212.074 61.0543 211.421 60.7987 210.578C60.5477 209.731 60.5169 208.729 60.7063 207.574C60.9004 206.428 61.2627 205.434 61.793 204.591C62.328 203.748 62.9838 203.097 63.7603 202.638C64.5368 202.179 65.3844 201.949 66.3029 201.949C67.0131 201.949 67.5553 202.067 67.9293 202.304C68.3081 202.536 68.5827 202.801 68.7532 203.099C68.9237 203.393 69.0539 203.634 69.1438 203.824H69.2859L70.1808 198.455H71.8569L69.4421 213H67.8228L68.1069 211.324H67.908C67.7518 211.523 67.534 211.774 67.2546 212.077C66.9753 212.375 66.6059 212.643 66.1467 212.879C65.6921 213.111 65.1145 213.227 64.4137 213.227ZM64.8256 211.722C65.498 211.722 66.0993 211.546 66.6296 211.196C67.1647 210.841 67.6097 210.351 67.9648 209.726C68.32 209.096 68.5662 208.369 68.7035 207.545C68.8408 206.731 68.8361 206.018 68.6893 205.408C68.5425 204.792 68.2608 204.314 67.8441 203.973C67.4274 203.627 66.8758 203.455 66.1893 203.455C65.4838 203.455 64.8706 203.637 64.3498 204.001C63.829 204.361 63.4052 204.851 63.0785 205.472C62.7518 206.087 62.5245 206.778 62.3967 207.545C62.2688 208.322 62.2665 209.027 62.3896 209.662C62.5127 210.292 62.7731 210.794 63.1708 211.168C63.5733 211.537 64.1249 211.722 64.8256 211.722ZM75.9123 213.256C75.221 213.256 74.6149 213.125 74.0941 212.865C73.5733 212.6 73.1874 212.219 72.9364 211.722C72.6855 211.22 72.6168 210.614 72.7305 209.903C72.8394 209.278 73.0501 208.772 73.3626 208.384C73.6751 207.991 74.0539 207.683 74.4989 207.46C74.9487 207.233 75.4317 207.065 75.9478 206.956C76.4686 206.842 76.9871 206.755 77.5032 206.693C78.1755 206.608 78.7224 206.542 79.1438 206.494C79.5652 206.447 79.8825 206.369 80.0955 206.26C80.3086 206.151 80.4388 205.964 80.4862 205.699V205.642C80.5998 204.946 80.5075 204.404 80.2092 204.016C79.9109 203.623 79.3782 203.426 78.6112 203.426C77.8157 203.426 77.1504 203.601 76.6154 203.952C76.0804 204.302 75.685 204.676 75.4293 205.074L73.9521 204.506C74.3403 203.843 74.8043 203.327 75.3441 202.957C75.8839 202.583 76.4497 202.323 77.0415 202.176C77.6334 202.025 78.204 201.949 78.7532 201.949C79.1036 201.949 79.4989 201.991 79.9393 202.077C80.3796 202.157 80.7915 202.325 81.1751 202.581C81.5633 202.837 81.8545 203.223 82.0487 203.739C82.2475 204.255 82.2759 204.946 82.1339 205.812L80.9407 213H79.2646L79.5202 211.523H79.435C79.2835 211.759 79.0515 212.013 78.739 212.283C78.4312 212.553 78.0406 212.782 77.5671 212.972C77.0984 213.161 76.5468 213.256 75.9123 213.256ZM76.3952 211.75C77.0581 211.75 77.6381 211.62 78.1353 211.359C78.6372 211.099 79.0397 210.763 79.3427 210.351C79.6504 209.939 79.8422 209.506 79.918 209.051L80.1737 207.517C80.0884 207.602 79.9203 207.68 79.6694 207.751C79.4184 207.818 79.1344 207.877 78.8171 207.929C78.5046 207.976 78.1992 208.019 77.9009 208.057C77.6074 208.09 77.3706 208.118 77.1907 208.142C76.7456 208.199 76.3219 208.291 75.9194 208.419C75.5217 208.542 75.1855 208.729 74.9109 208.98C74.641 209.226 74.4729 209.562 74.4066 209.989C74.3072 210.571 74.4469 211.011 74.8256 211.31C75.2044 211.603 75.7276 211.75 76.3952 211.75ZM88.1051 213.227C87.1913 213.227 86.4242 212.998 85.804 212.538C85.1837 212.074 84.7457 211.421 84.4901 210.578C84.2391 209.731 84.2083 208.729 84.3977 207.574C84.5919 206.428 84.9541 205.434 85.4844 204.591C86.0194 203.748 86.6752 203.097 87.4517 202.638C88.2282 202.179 89.0758 201.949 89.9943 201.949C90.7045 201.949 91.2467 202.067 91.6207 202.304C91.9995 202.536 92.2741 202.801 92.4446 203.099C92.6151 203.393 92.7453 203.634 92.8352 203.824H92.9773L93.8722 198.455H95.5483L93.1335 213H91.5142L91.7983 211.324H91.5994C91.4432 211.523 91.2254 211.774 90.946 212.077C90.6667 212.375 90.2973 212.643 89.8381 212.879C89.3835 213.111 88.8059 213.227 88.1051 213.227ZM88.517 211.722C89.1894 211.722 89.7907 211.546 90.321 211.196C90.8561 210.841 91.3011 210.351 91.6562 209.726C92.0114 209.096 92.2576 208.369 92.3949 207.545C92.5322 206.731 92.5275 206.018 92.3807 205.408C92.2339 204.792 91.9522 204.314 91.5355 203.973C91.1188 203.627 90.5672 203.455 89.8807 203.455C89.1752 203.455 88.562 203.637 88.0412 204.001C87.5204 204.361 87.0966 204.851 86.7699 205.472C86.4432 206.087 86.2159 206.778 86.0881 207.545C85.9602 208.322 85.9579 209.027 86.081 209.662C86.2041 210.292 86.4645 210.794 86.8622 211.168C87.2647 211.537 87.8163 211.722 88.517 211.722ZM108.808 217.091L109.76 211.324H109.618C109.462 211.523 109.244 211.774 108.964 212.077C108.69 212.375 108.323 212.643 107.864 212.879C107.404 213.111 106.824 213.227 106.124 213.227C105.214 213.227 104.45 212.998 103.83 212.538C103.209 212.074 102.774 211.421 102.523 210.578C102.272 209.731 102.241 208.729 102.43 207.574C102.62 206.428 102.98 205.434 103.51 204.591C104.04 203.748 104.694 203.097 105.47 202.638C106.247 202.179 107.094 201.949 108.013 201.949C108.723 201.949 109.265 202.067 109.639 202.304C110.018 202.536 110.293 202.801 110.463 203.099C110.634 203.393 110.764 203.634 110.854 203.824H111.053L111.351 202.091H112.97L110.484 217.091H108.808ZM106.592 211.722C107.269 211.722 107.868 211.546 108.389 211.196C108.915 210.841 109.348 210.351 109.689 209.726C110.035 209.096 110.276 208.369 110.413 207.545C110.551 206.731 110.551 206.018 110.413 205.408C110.276 204.792 110.004 204.314 109.597 203.973C109.194 203.627 108.652 203.455 107.97 203.455C107.26 203.455 106.637 203.637 106.102 204.001C105.572 204.361 105.139 204.851 104.803 205.472C104.466 206.087 104.234 206.778 104.107 207.545C103.979 208.322 103.981 209.027 104.114 209.662C104.251 210.292 104.523 210.794 104.93 211.168C105.342 211.537 105.896 211.722 106.592 211.722ZM121.828 208.54L122.908 202.091H124.584L122.766 213H121.09L121.402 211.153H121.289C120.948 211.707 120.472 212.179 119.861 212.567C119.25 212.95 118.533 213.142 117.709 213.142C117.027 213.142 116.445 212.993 115.962 212.695C115.484 212.392 115.143 211.937 114.939 211.331C114.74 210.72 114.717 209.951 114.868 209.023L116.033 202.091H117.709L116.573 208.909C116.445 209.705 116.566 210.339 116.935 210.812C117.304 211.286 117.837 211.523 118.533 211.523C118.95 211.523 119.39 211.416 119.854 211.203C120.323 210.99 120.739 210.663 121.104 210.223C121.473 209.783 121.715 209.222 121.828 208.54ZM130.381 213.227C129.335 213.227 128.471 212.995 127.789 212.531C127.107 212.062 126.631 211.409 126.362 210.571C126.092 209.728 126.049 208.748 126.234 207.631C126.418 206.513 126.785 205.528 127.335 204.676C127.884 203.819 128.568 203.152 129.387 202.673C130.206 202.19 131.106 201.949 132.086 201.949C132.654 201.949 133.201 202.044 133.727 202.233C134.252 202.422 134.707 202.73 135.09 203.156C135.474 203.578 135.741 204.136 135.893 204.832C136.044 205.528 136.035 206.385 135.864 207.403L135.751 208.114H127.342L127.569 206.665H134.273C134.382 206.049 134.354 205.5 134.188 205.017C134.027 204.534 133.746 204.153 133.343 203.874C132.945 203.594 132.441 203.455 131.83 203.455C131.201 203.455 130.613 203.625 130.069 203.966C129.524 204.302 129.07 204.728 128.705 205.244C128.341 205.756 128.113 206.277 128.023 206.807L127.825 208.057C127.683 208.961 127.704 209.681 127.888 210.216C128.078 210.751 128.407 211.137 128.876 211.374C129.344 211.606 129.932 211.722 130.637 211.722C131.087 211.722 131.501 211.66 131.88 211.537C132.259 211.409 132.597 211.22 132.896 210.969C133.194 210.713 133.445 210.396 133.648 210.017L135.183 210.472C134.922 211.021 134.555 211.504 134.082 211.92C133.613 212.332 133.064 212.654 132.434 212.886C131.809 213.114 131.125 213.227 130.381 213.227ZM152.288 204.534L150.697 204.96C150.641 204.705 150.541 204.458 150.399 204.222C150.262 203.98 150.049 203.784 149.76 203.632C149.476 203.476 149.088 203.398 148.595 203.398C147.928 203.398 147.348 203.552 146.855 203.859C146.363 204.162 146.081 204.548 146.01 205.017C145.939 205.429 146.034 205.758 146.294 206.004C146.554 206.25 146.99 206.452 147.601 206.608L149.163 207.006C150.101 207.247 150.768 207.609 151.166 208.092C151.569 208.571 151.706 209.193 151.578 209.96C151.474 210.585 151.202 211.144 150.761 211.636C150.321 212.129 149.758 212.517 149.071 212.801C148.384 213.085 147.62 213.227 146.777 213.227C145.655 213.227 144.769 212.986 144.121 212.503C143.472 212.015 143.126 211.31 143.084 210.386L144.76 209.989C144.803 210.571 145.011 211.011 145.385 211.31C145.764 211.603 146.294 211.75 146.976 211.75C147.757 211.75 148.408 211.584 148.929 211.253C149.45 210.917 149.746 210.514 149.817 210.045C149.888 209.662 149.812 209.342 149.589 209.087C149.372 208.831 148.993 208.639 148.453 208.511L146.72 208.085C145.754 207.844 145.077 207.474 144.689 206.977C144.305 206.48 144.178 205.855 144.305 205.102C144.41 204.487 144.675 203.942 145.101 203.469C145.532 202.995 146.071 202.624 146.72 202.354C147.374 202.084 148.084 201.949 148.851 201.949C149.93 201.949 150.738 202.186 151.273 202.659C151.808 203.128 152.146 203.753 152.288 204.534ZM158.093 213.227C157.089 213.227 156.248 212.988 155.571 212.51C154.894 212.032 154.416 211.362 154.137 210.5C153.862 209.638 153.817 208.634 154.002 207.489C154.182 206.371 154.539 205.398 155.074 204.57C155.614 203.736 156.284 203.092 157.084 202.638C157.889 202.179 158.775 201.949 159.74 201.949C160.744 201.949 161.582 202.19 162.255 202.673C162.932 203.152 163.41 203.824 163.689 204.69C163.969 205.552 164.016 206.561 163.831 207.716C163.651 208.824 163.289 209.792 162.745 210.621C162.205 211.445 161.535 212.086 160.735 212.545C159.939 213 159.059 213.227 158.093 213.227ZM158.121 211.722C158.888 211.722 159.553 211.525 160.117 211.132C160.685 210.739 161.144 210.221 161.495 209.577C161.85 208.933 162.089 208.237 162.212 207.489C162.326 206.778 162.321 206.118 162.198 205.507C162.075 204.892 161.812 204.397 161.409 204.023C161.007 203.644 160.441 203.455 159.712 203.455C158.945 203.455 158.275 203.653 157.702 204.051C157.134 204.449 156.675 204.972 156.324 205.621C155.974 206.269 155.739 206.968 155.621 207.716C155.507 208.426 155.51 209.087 155.628 209.697C155.751 210.304 156.014 210.794 156.417 211.168C156.824 211.537 157.392 211.722 158.121 211.722ZM168.279 206.438L167.2 213H165.523L167.342 202.091H168.961L168.677 203.795H168.819C169.16 203.241 169.621 202.796 170.204 202.46C170.786 202.119 171.489 201.949 172.313 201.949C173.042 201.949 173.658 202.1 174.16 202.403C174.666 202.702 175.024 203.156 175.232 203.767C175.445 204.373 175.476 205.14 175.325 206.068L174.16 213H172.484L173.62 206.182C173.762 205.33 173.651 204.662 173.286 204.179C172.926 203.696 172.356 203.455 171.575 203.455C171.035 203.455 170.535 203.571 170.076 203.803C169.621 204.035 169.236 204.373 168.918 204.818C168.606 205.263 168.393 205.803 168.279 206.438ZM177.223 213L179.041 202.091H180.66L180.376 203.739H180.49C180.774 203.199 181.207 202.761 181.789 202.425C182.372 202.089 182.99 201.92 183.643 201.92C183.771 201.92 183.925 201.923 184.105 201.928C184.285 201.928 184.424 201.935 184.524 201.949L184.24 203.653C184.183 203.639 184.055 203.618 183.856 203.589C183.657 203.556 183.444 203.54 183.217 203.54C182.687 203.54 182.197 203.651 181.747 203.874C181.297 204.091 180.921 204.394 180.618 204.783C180.315 205.166 180.12 205.604 180.035 206.097L178.899 213H177.223ZM184.703 213L186.521 202.091H188.197L186.379 213H184.703ZM186.862 200.585L189.135 197.29H191.095L188.339 200.585H186.862ZM193.995 213.227C192.948 213.227 192.084 212.995 191.402 212.531C190.721 212.062 190.245 211.409 189.975 210.571C189.705 209.728 189.662 208.748 189.847 207.631C190.032 206.513 190.399 205.528 190.948 204.676C191.497 203.819 192.181 203.152 193 202.673C193.819 202.19 194.719 201.949 195.699 201.949C196.267 201.949 196.814 202.044 197.34 202.233C197.865 202.422 198.32 202.73 198.703 203.156C199.087 203.578 199.355 204.136 199.506 204.832C199.658 205.528 199.648 206.385 199.478 207.403L199.364 208.114H190.955L191.182 206.665H197.887C197.996 206.049 197.967 205.5 197.801 205.017C197.641 204.534 197.359 204.153 196.956 203.874C196.559 203.594 196.054 203.455 195.444 203.455C194.814 203.455 194.227 203.625 193.682 203.966C193.138 204.302 192.683 204.728 192.319 205.244C191.954 205.756 191.727 206.277 191.637 206.807L191.438 208.057C191.296 208.961 191.317 209.681 191.502 210.216C191.691 210.751 192.02 211.137 192.489 211.374C192.958 211.606 193.545 211.722 194.25 211.722C194.7 211.722 195.114 211.66 195.493 211.537C195.872 211.409 196.211 211.22 196.509 210.969C196.807 210.713 197.058 210.396 197.262 210.017L198.796 210.472C198.535 211.021 198.168 211.504 197.695 211.92C197.226 212.332 196.677 212.654 196.047 212.886C195.422 213.114 194.738 213.227 193.995 213.227Z" fill="black"/>
</g>
<defs>
<filter id="filter0_d_4_63" x="153" y="0" width="9" height="52" filterUnits="userSpaceOnUse" color-interpolation-filters="sRGB">
<feFlood flood-opacity="0" result="BackgroundImageFix"/>
<feColorMatrix in="SourceAlpha" type="matrix" values="0 0 0 0 0 0 0 0 0 0 0 0 0 0 0 0 0 0 127 0" result="hardAlpha"/>
<feOffset dy="4"/>
<feGaussianBlur stdDeviation="2"/>
<feComposite in2="hardAlpha" operator="out"/>
<feColorMatrix type="matrix" values="0 0 0 0 0 0 0 0 0 0 0 0 0 0 0 0 0 0 0.25 0"/>
<feBlend mode="normal" in2="BackgroundImageFix" result="effect1_dropShadow_4_63"/>
<feBlend mode="normal" in="SourceGraphic" in2="effect1_dropShadow_4_63" result="shape"/>
</filter>
<filter id="filter1_d_4_63" x="153" y="143" width="9" height="51" filterUnits="userSpaceOnUse" color-interpolation-filters="sRGB">
<feFlood flood-opacity="0" result="BackgroundImageFix"/>
<feColorMatrix in="SourceAlpha" type="matrix" values="0 0 0 0 0 0 0 0 0 0 0 0 0 0 0 0 0 0 127 0" result="hardAlpha"/>
<feOffset dy="4"/>
<feGaussianBlur stdDeviation="2"/>
<feComposite in2="hardAlpha" operator="out"/>
<feColorMatrix type="matrix" values="0 0 0 0 0 0 0 0 0 0 0 0 0 0 0 0 0 0 0.25 0"/>
<feBlend mode="normal" in2="BackgroundImageFix" result="effect1_dropShadow_4_63"/>
<feBlend mode="normal" in="SourceGraphic" in2="effect1_dropShadow_4_63" result="shape"/>
</filter>
<filter id="filter2_d_4_63" x="203" y="91" width="53" height="9" filterUnits="userSpaceOnUse" color-interpolation-filters="sRGB">
<feFlood flood-opacity="0" result="BackgroundImageFix"/>
<feColorMatrix in="SourceAlpha" type="matrix" values="0 0 0 0 0 0 0 0 0 0 0 0 0 0 0 0 0 0 127 0" result="hardAlpha"/>
<feOffset dy="4"/>
<feGaussianBlur stdDeviation="2"/>
<feComposite in2="hardAlpha" operator="out"/>
<feColorMatrix type="matrix" values="0 0 0 0 0 0 0 0 0 0 0 0 0 0 0 0 0 0 0.25 0"/>
<feBlend mode="normal" in2="BackgroundImageFix" result="effect1_dropShadow_4_63"/>
<feBlend mode="normal" in="SourceGraphic" in2="effect1_dropShadow_4_63" result="shape"/>
</filter>
<filter id="filter3_d_4_63" x="60" y="91" width="53" height="9" filterUnits="userSpaceOnUse" color-interpolation-filters="sRGB">
<feFlood flood-opacity="0" result="BackgroundImageFix"/>
<feColorMatrix in="SourceAlpha" type="matrix" values="0 0 0 0 0 0 0 0 0 0 0 0 0 0 0 0 0 0 127 0" result="hardAlpha"/>
<feOffset dy="4"/>
<feGaussianBlur stdDeviation="2"/>
<feComposite in2="hardAlpha" operator="out"/>
<feColorMatrix type="matrix" values="0 0 0 0 0 0 0 0 0 0 0 0 0 0 0 0 0 0 0.25 0"/>
<feBlend mode="normal" in2="BackgroundImageFix" result="effect1_dropShadow_4_63"/>
<feBlend mode="normal" in="SourceGraphic" in2="effect1_dropShadow_4_63" result="shape"/>
</filter>
<filter id="filter4_d_4_63" x="96.702" y="132.131" width="28.6426" height="27.0127" filterUnits="userSpaceOnUse" color-interpolation-filters="sRGB">
<feFlood flood-opacity="0" result="BackgroundImageFix"/>
<feColorMatrix in="SourceAlpha" type="matrix" values="0 0 0 0 0 0 0 0 0 0 0 0 0 0 0 0 0 0 127 0" result="hardAlpha"/>
<feOffset dy="4"/>
<feGaussianBlur stdDeviation="2"/>
<feComposite in2="hardAlpha" operator="out"/>
<feColorMatrix type="matrix" values="0 0 0 0 0 0 0 0 0 0 0 0 0 0 0 0 0 0 0.25 0"/>
<feBlend mode="normal" in2="BackgroundImageFix" result="effect1_dropShadow_4_63"/>
<feBlend mode="normal" in="SourceGraphic" in2="effect1_dropShadow_4_63" result="shape"/>
</filter>
<filter id="filter5_d_4_63" x="94.2669" y="46.4583" width="31.5302" height="23.575" filterUnits="userSpaceOnUse" color-interpolation-filters="sRGB">
<feFlood flood-opacity="0" result="BackgroundImageFix"/>
<feColorMatrix in="SourceAlpha" type="matrix" values="0 0 0 0 0 0 0 0 0 0 0 0 0 0 0 0 0 0 127 0" result="hardAlpha"/>
<feOffset dy="4"/>
<feGaussianBlur stdDeviation="2"/>
<feComposite in2="hardAlpha" operator="out"/>
<feColorMatrix type="matrix" values="0 0 0 0 0 0 0 0 0 0 0 0 0 0 0 0 0 0 0.25 0"/>
<feBlend mode="normal" in2="BackgroundImageFix" result="effect1_dropShadow_4_63"/>
<feBlend mode="normal" in="SourceGraphic" in2="effect1_dropShadow_4_63" result="shape"/>
</filter>
<filter id="filter6_d_4_63" x="189.025" y="132.017" width="31.5302" height="23.575" filterUnits="userSpaceOnUse" color-interpolation-filters="sRGB">
<feFlood flood-opacity="0" result="BackgroundImageFix"/>
<feColorMatrix in="SourceAlpha" type="matrix" values="0 0 0 0 0 0 0 0 0 0 0 0 0 0 0 0 0 0 127 0" result="hardAlpha"/>
<feOffset dy="4"/>
<feGaussianBlur stdDeviation="2"/>
<feComposite in2="hardAlpha" operator="out"/>
<feColorMatrix type="matrix" values="0 0 0 0 0 0 0 0 0 0 0 0 0 0 0 0 0 0 0.25 0"/>
<feBlend mode="normal" in2="BackgroundImageFix" result="effect1_dropShadow_4_63"/>
<feBlend mode="normal" in="SourceGraphic" in2="effect1_dropShadow_4_63" result="shape"/>
</filter>
<filter id="filter7_d_4_63" x="2.01704" y="154.906" width="116.232" height="39.5057" filterUnits="userSpaceOnUse" color-interpolation-filters="sRGB">
<feFlood flood-opacity="0" result="BackgroundImageFix"/>
<feColorMatrix in="SourceAlpha" type="matrix" values="0 0 0 0 0 0 0 0 0 0 0 0 0 0 0 0 0 0 127 0" result="hardAlpha"/>
<feOffset dy="4"/>
<feGaussianBlur stdDeviation="2"/>
<feComposite in2="hardAlpha" operator="out"/>
<feColorMatrix type="matrix" values="0 0 0 0 0 0 0 0 0 0 0 0 0 0 0 0 0 0 0.25 0"/>
<feBlend mode="normal" in2="BackgroundImageFix" result="effect1_dropShadow_4_63"/>
<feBlend mode="normal" in="SourceGraphic" in2="effect1_dropShadow_4_63" result="shape"/>
</filter>
<filter id="filter8_d_4_63" x="0.85228" y="197.29" width="202.881" height="27.8011" filterUnits="userSpaceOnUse" color-interpolation-filters="sRGB">
<feFlood flood-opacity="0" result="BackgroundImageFix"/>
<feColorMatrix in="SourceAlpha" type="matrix" values="0 0 0 0 0 0 0 0 0 0 0 0 0 0 0 0 0 0 127 0" result="hardAlpha"/>
<feOffset dy="4"/>
<feGaussianBlur stdDeviation="2"/>
<feComposite in2="hardAlpha" operator="out"/>
<feColorMatrix type="matrix" values="0 0 0 0 0 0 0 0 0 0 0 0 0 0 0 0 0 0 0.25 0"/>
<feBlend mode="normal" in2="BackgroundImageFix" result="effect1_dropShadow_4_63"/>
<feBlend mode="normal" in="SourceGraphic" in2="effect1_dropShadow_4_63" result="shape"/>
</filter>
</defs>
</svg>
